<svg version="1.1" preserveAspectRatio="none" xmlns="http://www.w3.org/2000/svg" width="500" height="500" viewBox="0 0 500 500"><rect width="100%" height="100%" fill="#0E0E0E" fill-opacity="1"/><svg viewBox="121.9262 180.5255 207.5977 100" width="417" height="200.86927745345923" x="41.5px" y="149.5654px" xmlns="http://www.w3.org/2000/svg" xmlns:xlink="http://www.w3.org/1999/xlink" preserveAspectRatio="none"><defs></defs><style>.background {fill:#0E0E0E;fill-opacity:1;}.icon3 {fill:#DFDFDF;fill-opacity:1;}.icon3-str {stroke:#DFDFDF;stroke-opacity:1;}.shapeStroke-str {stroke:#EBE7D9;stroke-opacity:1;}</style><g opacity="1" transform="rotate(0 121.9262 181.5255)">
<svg width="207.5977" height="98" x="121.9262" y="181.5255" version="1.1" preserveAspectRatio="none" viewBox="0 0 207.5977 98">
  <defs><rect x="0" y="0" width="207.5977" height="98" rx="0px" ry="0px" id="id-MGa_3CcrI1701693905947"></rect></defs><use class="icon3 shapeStroke-str" style="stroke-width:0;" xlink:href="#id-MGa_3CcrI1701693905947"></use>
</svg>
</g><g opacity="1" transform="rotate(0 121.9262 180.5255)">
<svg width="207.5977" height="100" x="121.9262" y="180.5255" version="1.1" preserveAspectRatio="none" viewBox="0.16 -28.56 120.24000000000001 57.92">
  <g transform="matrix(1 0 0 1 0 0)" class="background"><path id="id-D6z1nYkh7" d="M8.76 0L8.76-21.72L0.16-21.72L0.16-28L25.24-28L25.24-21.72L16.68-21.72L16.68 0L8.76 0Z M41.92 0.56Q37.48 0.56 33.94-1.32Q30.40-3.20 28.38-6.52Q26.36-9.84 26.36-14L26.36-14Q26.36-18.16 28.38-21.48Q30.40-24.80 33.94-26.68Q37.48-28.56 41.92-28.56L41.92-28.56Q46.36-28.56 49.90-26.68Q53.44-24.80 55.46-21.48Q57.48-18.16 57.48-14L57.48-14Q57.48-9.84 55.46-6.52Q53.44-3.20 49.90-1.32Q46.36 0.56 41.92 0.56L41.92 0.56ZM41.92-6Q44.04-6 45.76-7Q47.48-8 48.48-9.82Q49.48-11.64 49.48-14L49.48-14Q49.48-16.36 48.48-18.18Q47.48-20 45.76-21Q44.04-22 41.92-22L41.92-22Q39.80-22 38.08-21Q36.36-20 35.36-18.18Q34.36-16.36 34.36-14L34.36-14Q34.36-11.64 35.36-9.82Q36.36-8 38.08-7Q39.80-6 41.92-6L41.92-6Z M80.44 0L72.44-10.16L69.48-7L69.48 0L61.64 0L61.64-28L69.48-28L69.48-16.36L80.32-28L89.04-28L77.60-15.60L89.64 0L80.44 0Z M104.84 0.56Q100.40 0.56 96.86-1.32Q93.32-3.20 91.30-6.52Q89.28-9.84 89.28-14L89.28-14Q89.28-18.16 91.30-21.48Q93.32-24.80 96.86-26.68Q100.40-28.56 104.84-28.56L104.84-28.56Q109.28-28.56 112.82-26.68Q116.36-24.80 118.38-21.48Q120.40-18.16 120.40-14L120.40-14Q120.40-9.84 118.38-6.52Q116.36-3.20 112.82-1.32Q109.28 0.56 104.84 0.56L104.84 0.56ZM104.84-6Q106.96-6 108.68-7Q110.40-8 111.40-9.82Q112.40-11.64 112.40-14L112.40-14Q112.40-16.36 111.40-18.18Q110.40-20 108.68-21Q106.96-22 104.84-22L104.84-22Q102.72-22 101-21Q99.28-20 98.28-18.18Q97.28-16.36 97.28-14L97.28-14Q97.28-11.64 98.28-9.82Q99.28-8 101-7Q102.72-6 104.84-6L104.84-6Z M8.76 28.80L8.76 7.08L0.16 7.08L0.16 0.80L25.24 0.80L25.24 7.08L16.68 7.08L16.68 28.80L8.76 28.80Z M47.76 28.80L45.56 23.36L33.72 23.36L31.52 28.80L23.44 28.80L35.80 0.80L43.60 0.80L56 28.80L47.76 28.80ZM36.04 17.52L43.24 17.52L39.64 8.56L36.04 17.52Z M68.08 29.36Q64.68 29.36 61.48 28.52Q58.28 27.68 56.28 26.28L56.28 26.28L58.88 20.44Q60.76 21.68 63.24 22.44Q65.72 23.20 68.12 23.20L68.12 23.20Q72.68 23.20 72.68 20.92L72.68 20.92Q72.68 19.72 71.38 19.14Q70.08 18.56 67.20 17.92L67.20 17.92Q64.04 17.24 61.92 16.46Q59.80 15.68 58.28 13.96Q56.76 12.24 56.76 9.32L56.76 9.32Q56.76 6.76 58.16 4.70Q59.56 2.64 62.34 1.44Q65.12 0.24 69.16 0.24L69.16 0.24Q71.92 0.24 74.60 0.86Q77.28 1.48 79.32 2.68L79.32 2.68L76.88 8.56Q72.88 6.40 69.12 6.40L69.12 6.40Q66.76 6.40 65.68 7.10Q64.60 7.80 64.60 8.92L64.60 8.92Q64.60 10.04 65.88 10.60Q67.16 11.16 70 11.76L70 11.76Q73.20 12.44 75.30 13.22Q77.40 14.00 78.94 15.70Q80.48 17.40 80.48 20.32L80.48 20.32Q80.48 22.84 79.08 24.88Q77.68 26.92 74.88 28.14Q72.08 29.36 68.08 29.36L68.08 29.36Z"/></g>
</svg>
</g></svg></svg>